<svg width="32" height="40" viewBox="0 0 32 40" fill="none" xmlns="http://www.w3.org/2000/svg" xmlns:xlink="http://www.w3.org/1999/xlink">
<path d="M30,38L28.838,39.627C29.447,40.063 30.249,40.121 30.915,39.778C31.581,39.436 32,38.749 32,38L30,38ZM16,28L17.162,26.373C16.467,25.876 15.533,25.876 14.838,26.373L16,28ZM2,38L0,38C0,38.749 0.419,39.436 1.085,39.778C1.751,40.121 2.553,40.063 3.162,39.627L2,38ZM6,2L6,0L6,2ZM26,2L26,0L26,2ZM31.162,36.373L17.162,26.373L14.838,29.627L28.838,39.627L31.162,36.373ZM14.838,26.373L0.838,36.373L3.162,39.627L17.162,29.627L14.838,26.373ZM4,38L4,6L0,6L0,38L4,38ZM4,6C4,5.47 4.211,4.961 4.586,4.586L1.757,1.757C0.632,2.883 0,4.409 0,6L4,6ZM4.586,4.586C4.961,4.211 5.47,4 6,4L6,0C4.409,0 2.883,0.632 1.757,1.757L4.586,4.586ZM6,4L26,4L26,0L6,0L6,4ZM26,4C26.53,4 27.039,4.211 27.414,4.586L30.243,1.757C29.117,0.632 27.591,0 26,0L26,4ZM27.414,4.586C27.789,4.961 28,5.47 28,6L32,6C32,4.409 31.368,2.883 30.243,1.757L27.414,4.586ZM28,6L28,38L32,38L32,6L28,6Z" fill="#7B7B7F"/>
</svg>
