<svg width="34" height="24" viewBox="0 0 34 24" fill="none" xmlns="http://www.w3.org/2000/svg" xmlns:xlink="http://www.w3.org/1999/xlink">
<path d="M32,0.672L30,0.672C28.895,0.672 28,1.568 28,2.672L28,20.006C28,21.11 28.895,22.006 30,22.006L32,22.006C33.105,22.006 34,21.11 34,20.006L34,2.672C34,1.568 33.105,0.672 32,0.672ZM20.667,5.339L22.667,5.339C23.771,5.339 24.667,6.234 24.667,7.339L24.667,20.006C24.667,21.11 23.771,22.006 22.667,22.006L20.667,22.006C19.562,22.006 18.667,21.11 18.667,20.006L18.667,7.339C18.667,6.234 19.562,5.339 20.667,5.339ZM13.333,10.006L11.333,10.006C10.229,10.006 9.333,10.901 9.333,12.006L9.333,20.006C9.333,21.11 10.229,22.006 11.333,22.006L13.333,22.006C14.438,22.006 15.333,21.11 15.333,20.006L15.333,12.006C15.333,10.901 14.438,10.006 13.333,10.006ZM4,14.006L2,14.006C0.895,14.006 0,14.901 0,16.006L0,20.006C0,21.11 0.895,22.006 2,22.006L4,22.006C5.105,22.006 6,21.11 6,20.006L6,16.006C6,14.901 5.105,14.006 4,14.006Z" clip-rule="evenodd" fill-rule="evenodd" fill="#080E1C"/>
</svg>
