<svg width="48" height="48" viewBox="0 0 48 48" fill="none" xmlns="http://www.w3.org/2000/svg" xmlns:xlink="http://www.w3.org/1999/xlink">
<path d="M6,18L4.772,16.421C4.285,16.8 4,17.383 4,18L6,18ZM24,4L25.228,2.421C24.506,1.86 23.494,1.86 22.772,2.421L24,4ZM42,18L44,18C44,17.383 43.715,16.8 43.228,16.421L42,18ZM6,40L4,40L6,40ZM7.228,19.579L25.228,5.579L22.772,2.421L4.772,16.421L7.228,19.579ZM22.772,5.579L40.772,19.579L43.228,16.421L25.228,2.421L22.772,5.579ZM40,18L40,40L44,40L44,18L40,18ZM40,40C40,40.53 39.789,41.039 39.414,41.414L42.243,44.243C43.368,43.117 44,41.591 44,40L40,40ZM39.414,41.414C39.039,41.789 38.53,42 38,42L38,46C39.591,46 41.117,45.368 42.243,44.243L39.414,41.414ZM38,42L10,42L10,46L38,46L38,42ZM10,42C9.47,42 8.961,41.789 8.586,41.414L5.757,44.243C6.883,45.368 8.409,46 10,46L10,42ZM8.586,41.414C8.211,41.039 8,40.53 8,40L4,40C4,41.591 4.632,43.117 5.757,44.243L8.586,41.414ZM8,40L8,18L4,18L4,40L8,40Z" fill="#FF8F31"/>
<path d="M16,44C16,45.105 16.895,46 18,46C19.105,46 20,45.105 20,44L16,44ZM18,24L18,22C16.895,22 16,22.895 16,24L18,24ZM30,24L32,24C32,22.895 31.105,22 30,22L30,24ZM28,44C28,45.105 28.895,46 30,46C31.105,46 32,45.105 32,44L28,44ZM20,44L20,24L16,24L16,44L20,44ZM18,26L30,26L30,22L18,22L18,26ZM28,24L28,44L32,44L32,24L28,24Z" fill="#FF8F31"/>
</svg>
