<svg width="24" height="28" viewBox="0 0 24 28" fill="none" xmlns="http://www.w3.org/2000/svg" xmlns:xlink="http://www.w3.org/1999/xlink">
<path d="M12.857,12.571C12.857,13.045 12.473,13.429 12,13.429L12,17.429C14.683,17.429 16.857,15.254 16.857,12.571L12.857,12.571ZM12,13.429C11.527,13.429 11.143,13.045 11.143,12.571L7.143,12.571C7.143,15.254 9.317,17.429 12,17.429L12,13.429ZM11.143,12.571C11.143,12.098 11.527,11.714 12,11.714L12,7.714C9.317,7.714 7.143,9.889 7.143,12.571L11.143,12.571ZM12,11.714C12.473,11.714 12.857,12.098 12.857,12.571L16.857,12.571C16.857,9.889 14.683,7.714 12,7.714L12,11.714Z" fill="#FF8F31"/>
<path d="M22,11.922L24,11.922L22,11.922ZM12,25.428L10.942,27.126C11.59,27.529 12.41,27.529 13.058,27.126L12,25.428ZM2,11.922L0,11.922L2,11.922ZM12,2.571L12,4.571L12,2.571ZM20,11.922C20,14.703 18.028,17.578 15.595,19.979C14.428,21.131 13.254,22.077 12.368,22.737C11.927,23.065 11.562,23.319 11.31,23.489C11.185,23.574 11.088,23.637 11.025,23.678C10.994,23.698 10.971,23.713 10.956,23.722C10.949,23.726 10.945,23.729 10.942,23.731C10.941,23.732 10.94,23.732 10.94,23.732C10.94,23.732 10.94,23.732 10.941,23.732C10.941,23.732 10.941,23.732 10.941,23.732C10.942,23.731 10.942,23.731 12,25.428C13.058,27.126 13.058,27.125 13.059,27.125C13.059,27.125 13.06,27.124 13.06,27.124C13.061,27.124 13.062,27.123 13.063,27.122C13.066,27.121 13.069,27.119 13.072,27.117C13.079,27.112 13.089,27.106 13.101,27.099C13.125,27.083 13.158,27.062 13.199,27.035C13.283,26.981 13.401,26.904 13.549,26.804C13.845,26.604 14.261,26.314 14.757,25.945C15.746,25.208 17.072,24.142 18.405,22.826C20.972,20.292 24,16.414 24,11.922L20,11.922ZM12,25.428C13.058,23.731 13.058,23.731 13.059,23.732C13.059,23.732 13.059,23.732 13.059,23.732C13.06,23.732 13.06,23.732 13.06,23.732C13.06,23.732 13.059,23.732 13.058,23.731C13.055,23.729 13.051,23.726 13.044,23.722C13.029,23.713 13.006,23.698 12.975,23.678C12.912,23.637 12.815,23.574 12.69,23.489C12.438,23.319 12.073,23.065 11.632,22.737C10.746,22.077 9.572,21.131 8.405,19.979C5.972,17.578 4,14.703 4,11.922L0,11.922C0,16.414 3.028,20.292 5.595,22.826C6.928,24.142 8.254,25.208 9.243,25.945C9.739,26.314 10.155,26.604 10.451,26.804C10.599,26.904 10.717,26.981 10.801,27.035C10.842,27.062 10.875,27.083 10.899,27.099C10.911,27.106 10.921,27.112 10.928,27.117C10.931,27.119 10.934,27.121 10.937,27.122C10.938,27.123 10.939,27.124 10.94,27.124C10.94,27.124 10.941,27.125 10.941,27.125C10.942,27.125 10.942,27.126 12,25.428ZM4,11.922C4,10.017 4.808,8.161 6.295,6.771L3.563,3.849C1.299,5.966 0,8.867 0,11.922L4,11.922ZM6.295,6.771C7.786,5.376 9.837,4.571 12,4.571L12,0.571C8.859,0.571 5.822,1.737 3.563,3.849L6.295,6.771ZM12,4.571C14.163,4.571 16.214,5.376 17.705,6.771L20.437,3.849C18.178,1.737 15.141,0.571 12,0.571L12,4.571ZM17.705,6.771C19.192,8.161 20,10.017 20,11.922L24,11.922C24,8.867 22.701,5.966 20.437,3.849L17.705,6.771Z" fill="#FF8F31"/>
</svg>
