<svg width="32" height="36" viewBox="0 0 32 36" fill="none" xmlns="http://www.w3.org/2000/svg" xmlns:xlink="http://www.w3.org/1999/xlink">
<path d="M18,16C18,17.105 17.105,18 16,18L16,22C19.314,22 22,19.314 22,16L18,16ZM16,18C14.895,18 14,17.105 14,16L10,16C10,19.314 12.686,22 16,22L16,18ZM14,16C14,14.896 14.895,14 16,14L16,10C12.686,10 10,12.686 10,16L14,16ZM16,14C17.105,14 18,14.896 18,16L22,16C22,12.686 19.314,10 16,10L16,14Z" fill="#FF8F31"/>
<path d="M30,15.091L32,15.091L32,15.091L30,15.091ZM16,34L14.942,35.697C15.59,36.101 16.41,36.101 17.058,35.697L16,34ZM2,15.091L0,15.091L0,15.091L2,15.091ZM16,2L16,4L16,2ZM28,15.091C28,19.326 25.028,23.552 21.595,26.94C19.928,28.585 18.254,29.934 16.993,30.873C16.364,31.341 15.843,31.704 15.482,31.948C15.302,32.069 15.162,32.161 15.07,32.221C15.024,32.251 14.99,32.273 14.968,32.286C14.957,32.293 14.949,32.298 14.945,32.301C14.943,32.302 14.942,32.303 14.941,32.303C14.941,32.304 14.941,32.304 14.941,32.303C14.941,32.303 14.941,32.303 14.941,32.303C14.942,32.303 14.942,32.303 16,34C17.058,35.697 17.058,35.697 17.059,35.697C17.059,35.696 17.06,35.696 17.06,35.696C17.061,35.695 17.063,35.694 17.064,35.693C17.067,35.692 17.071,35.689 17.075,35.686C17.084,35.681 17.097,35.673 17.112,35.663C17.144,35.643 17.188,35.615 17.244,35.578C17.357,35.505 17.518,35.399 17.721,35.263C18.126,34.989 18.698,34.591 19.382,34.081C20.746,33.066 22.572,31.597 24.405,29.787C27.972,26.266 32,21.037 32,15.091L28,15.091ZM16,34C17.058,32.303 17.058,32.303 17.059,32.303C17.059,32.303 17.059,32.303 17.059,32.303C17.059,32.304 17.059,32.304 17.059,32.303C17.058,32.303 17.057,32.302 17.055,32.301C17.051,32.298 17.043,32.293 17.032,32.286C17.01,32.273 16.976,32.251 16.93,32.221C16.838,32.161 16.698,32.069 16.518,31.948C16.157,31.704 15.636,31.341 15.007,30.873C13.746,29.934 12.072,28.585 10.405,26.94C6.972,23.552 4,19.326 4,15.091L0,15.091C0,21.037 4.028,26.266 7.595,29.787C9.428,31.597 11.254,33.066 12.618,34.081C13.302,34.591 13.874,34.989 14.279,35.263C14.482,35.399 14.643,35.505 14.756,35.578C14.812,35.615 14.856,35.643 14.888,35.663C14.903,35.673 14.916,35.681 14.925,35.686C14.929,35.689 14.933,35.692 14.936,35.693C14.937,35.694 14.939,35.695 14.94,35.696C14.94,35.696 14.941,35.696 14.941,35.697C14.942,35.697 14.942,35.697 16,34ZM4,15.091C4,12.194 5.229,9.387 7.466,7.295L4.735,4.373C1.721,7.192 0,11.044 0,15.091L4,15.091ZM7.466,7.295C9.708,5.199 12.776,4 16,4L16,0C11.798,0 7.744,1.56 4.735,4.373L7.466,7.295ZM16,4C19.224,4 22.292,5.199 24.534,7.295L27.265,4.373C24.256,1.56 20.202,0 16,0L16,4ZM24.534,7.295C26.771,9.387 28,12.194 28,15.091L32,15.091C32,11.044 30.279,7.192 27.265,4.373L24.534,7.295Z" fill="#FF8F31"/>
</svg>
