<svg width="56" height="48" viewBox="0 0 56 48" fill="none" xmlns="http://www.w3.org/2000/svg" xmlns:xlink="http://www.w3.org/1999/xlink">
<path d="M56,15.956C55.905,9.774 52.184,3.685 46.472,1.176C43.402,-0.176 39.899,-0.37 36.682,0.633C33.758,1.509 30.825,3.302 28,6.124C25.175,3.302 22.242,1.512 19.318,0.633C16.101,-0.37 12.598,-0.176 9.528,1.176C3.816,3.685 0.095,9.774 0,15.956L0,15.987C0,25.002 5.691,32.99 11.723,38.598C14.461,41.161 17.499,43.424 20.778,45.343C22.18,46.144 23.503,46.789 24.677,47.242C25.801,47.672 26.971,48 28,48C29.029,48 30.199,47.672 31.319,47.242C32.497,46.792 33.82,46.148 35.218,45.343C38.498,43.424 41.537,41.161 44.277,38.598C50.309,32.99 56,25.002 56,15.991L56,15.956Z" clip-rule="evenodd" fill-rule="evenodd" fill="#FE4242"/>
</svg>
