<svg width="48" height="48" viewBox="0 0 48 48" fill="none" xmlns="http://www.w3.org/2000/svg" xmlns:xlink="http://www.w3.org/1999/xlink">
<path d="M41.68,9.22L40.265,10.634L40.266,10.635L41.68,9.22ZM33.9,5.996L33.9,7.996L33.9,5.996ZM26.12,9.22L27.534,10.634L27.535,10.634L26.12,9.22ZM24,11.34L22.586,12.754C23.367,13.535 24.633,13.535 25.414,12.754L24,11.34ZM21.88,9.22L20.466,10.634L20.466,10.634L21.88,9.22ZM6.32,24.78L4.906,26.194L4.906,26.194L6.32,24.78ZM8.44,26.9L7.026,28.314L8.44,26.9ZM24,42.46L22.586,43.874C23.367,44.655 24.633,44.655 25.414,43.874L24,42.46ZM41.68,24.78L40.266,23.365L40.266,23.366L41.68,24.78ZM43.095,7.806C41.887,6.598 40.454,5.64 38.876,4.986L37.345,8.682C38.437,9.134 39.43,9.798 40.265,10.634L43.095,7.806ZM38.876,4.986C37.299,4.333 35.608,3.996 33.9,3.996L33.9,7.996C35.082,7.996 36.253,8.229 37.345,8.682L38.876,4.986ZM33.9,3.996C32.192,3.996 30.501,4.333 28.924,4.986L30.455,8.682C31.547,8.229 32.718,7.996 33.9,7.996L33.9,3.996ZM28.924,4.986C27.346,5.64 25.913,6.598 24.705,7.806L27.535,10.634C28.37,9.798 29.363,9.134 30.455,8.682L28.924,4.986ZM24.706,7.806L22.586,9.926L25.414,12.754L27.534,10.634L24.706,7.806ZM25.414,9.926L23.294,7.806L20.466,10.634L22.586,12.754L25.414,9.926ZM23.294,7.806C20.856,5.367 17.548,3.997 14.1,3.997L14.1,7.997C16.488,7.997 18.777,8.946 20.466,10.634L23.294,7.806ZM14.1,3.997C10.651,3.997 7.344,5.367 4.906,7.806L7.734,10.634C9.423,8.946 11.712,7.997 14.1,7.997L14.1,3.997ZM4.906,7.806C2.467,10.244 1.097,13.551 1.097,17L5.097,17C5.097,14.612 6.046,12.323 7.734,10.634L4.906,7.806ZM1.097,17C1.097,20.448 2.467,23.756 4.906,26.194L7.734,23.366C6.046,21.677 5.097,19.388 5.097,17L1.097,17ZM4.906,26.194L7.026,28.314L9.854,25.486L7.734,23.366L4.906,26.194ZM7.026,28.314L22.586,43.874L25.414,41.046L9.854,25.486L7.026,28.314ZM25.414,43.874L40.974,28.314L38.146,25.486L22.586,41.046L25.414,43.874ZM40.974,28.314L43.094,26.194L40.266,23.366L38.146,25.486L40.974,28.314ZM43.094,26.195C44.302,24.987 45.26,23.554 45.913,21.976L42.218,20.445C41.766,21.537 41.102,22.53 40.266,23.365L43.094,26.195ZM45.913,21.976C46.567,20.399 46.904,18.708 46.904,17L42.904,17C42.904,18.182 42.671,19.353 42.218,20.445L45.913,21.976ZM46.904,17C46.904,15.292 46.567,13.601 45.913,12.024L42.218,13.555C42.671,14.647 42.904,15.818 42.904,17L46.904,17ZM45.913,12.024C45.26,10.446 44.302,9.013 43.094,7.805L40.266,10.635C41.102,11.47 41.766,12.463 42.218,13.555L45.913,12.024Z" fill="#7B7B7F"/>
<circle cx="40" cy="8" r="6" fill="#FF8F31"/>
</svg>
