<svg width="28" height="28" viewBox="0 0 28 28" fill="none" xmlns="http://www.w3.org/2000/svg" xmlns:xlink="http://www.w3.org/1999/xlink">
<path d="M21.333,12.667C21.333,17.453 17.453,21.333 12.667,21.333L12.667,25.333C19.662,25.333 25.333,19.662 25.333,12.667L21.333,12.667ZM12.667,21.333C7.88,21.333 4,17.453 4,12.667L0,12.667C0,19.662 5.671,25.333 12.667,25.333L12.667,21.333ZM4,12.667C4,7.88 7.88,4 12.667,4L12.667,0C5.671,0 0,5.671 0,12.667L4,12.667ZM12.667,4C17.453,4 21.333,7.88 21.333,12.667L25.333,12.667C25.333,5.671 19.662,0 12.667,0L12.667,4Z" fill="#FFF8F2"/>
<path d="M24.586,27.414C25.367,28.195 26.633,28.195 27.414,27.414C28.195,26.633 28.195,25.367 27.414,24.586L24.586,27.414ZM21.614,18.786C20.833,18.005 19.567,18.005 18.786,18.786C18.005,19.567 18.005,20.833 18.786,21.614L21.614,18.786ZM27.414,24.586L21.614,18.786L18.786,21.614L24.586,27.414L27.414,24.586Z" fill="#FFF8F2"/>
</svg>
