<svg width="40" height="44" viewBox="0 0 40 44" fill="none" xmlns="http://www.w3.org/2000/svg" xmlns:xlink="http://www.w3.org/1999/xlink">
<path d="M17.004,0.805C17.915,0.28 18.948,0.004 20,0.004C21.052,0.004 22.085,0.28 22.996,0.806C22.997,0.806 22.999,0.807 23,0.808L36.992,8.804L37,8.808C37.911,9.334 38.668,10.09 39.195,11.001C39.721,11.912 39.999,12.946 40,13.998L40,14L40,30L40,30.002C39.999,31.054 39.721,32.088 39.195,32.998C38.668,33.909 37.911,34.666 37,35.192L36.992,35.196L23,43.192C22.999,43.193 22.998,43.193 22.996,43.194C22.085,43.719 21.052,43.996 20,43.996C18.948,43.996 17.915,43.719 17.004,43.194C17.002,43.193 17.001,43.193 17,43.192L3.008,35.196L3,35.192C2.089,34.666 1.332,33.909 0.805,32.998C0.279,32.088 0.001,31.054 0,30.002L0,30L0,14L0,13.998C0.001,12.946 0.279,11.912 0.805,11.001C1.332,10.09 2.089,9.334 3,8.808L3.008,8.803L3.008,8.804L17.004,0.805ZM20,4.004C19.649,4.004 19.304,4.097 19,4.272L18.992,4.276L18.992,4.276L5,12.272C4.999,12.273 4.998,12.273 4.997,12.274C4.695,12.449 4.443,12.701 4.268,13.003C4.093,13.307 4.001,13.651 4,14.001L4,29.999C4.001,30.349 4.093,30.693 4.268,30.997C4.443,31.299 4.695,31.551 4.997,31.726C4.998,31.727 4.999,31.727 5,31.728L18.992,39.723L19,39.728C19.304,39.903 19.649,39.996 20,39.996C20.351,39.996 20.696,39.903 21,39.728L21.008,39.723L35,31.728C35.001,31.727 35.002,31.727 35.003,31.726C35.305,31.551 35.557,31.299 35.732,30.997C35.907,30.693 36,30.349 36,29.998L36,14.002C36,13.651 35.907,13.307 35.732,13.003C35.557,12.701 35.305,12.449 35.003,12.274C35.002,12.273 35.001,12.273 35,12.272L21.008,4.276L21,4.272L21,4.272C20.696,4.097 20.351,4.004 20,4.004ZM18.338,13.779C18.844,13.488 19.417,13.335 20,13.335C20.583,13.335 21.156,13.488 21.662,13.779L26.326,16.444L26.333,16.448L26.333,16.448C26.84,16.74 27.26,17.16 27.553,17.667C27.845,18.173 27.999,18.747 28,19.331L28,19.333L28,24.667L28,24.669C27.999,25.253 27.845,25.827 27.553,26.333C27.26,26.839 26.84,27.26 26.333,27.552L26.326,27.556L26.326,27.556L21.662,30.221C21.156,30.512 20.583,30.665 20,30.665C19.417,30.665 18.844,30.512 18.338,30.221L13.674,27.556L13.667,27.552L13.667,27.552C13.16,27.26 12.74,26.839 12.447,26.333C12.155,25.827 12.001,25.253 12,24.669L12,24.667L12,19.333L12,19.331C12.001,18.747 12.155,18.173 12.447,17.667C12.74,17.16 13.16,16.74 13.667,16.448L13.674,16.443L13.674,16.444L18.338,13.779ZM19.667,17.245L19.672,17.248ZM20,17.436L24,19.722L24,24.278L20,26.564L16,24.278L16,19.722L20,17.436Z" clip-rule="evenodd" fill-rule="evenodd" fill="#7B7B7F"/>
</svg>
