<svg width="24" height="24" viewBox="0 0 24 24" fill="none" xmlns="http://www.w3.org/2000/svg" xmlns:xlink="http://www.w3.org/1999/xlink">
<path d="M11.997,0.482C11.657,0.482 11.324,0.58 11.037,0.763C10.754,0.944 10.528,1.201 10.385,1.504L7.663,6.998C7.658,7.009 7.653,7.02 7.648,7.031L7.642,7.038L7.634,7.041C7.624,7.042 7.613,7.044 7.603,7.045L1.61,7.933C1.279,7.965 0.963,8.09 0.699,8.292C0.425,8.502 0.218,8.786 0.103,9.111C-0.013,9.436 -0.031,9.788 0.049,10.123C0.129,10.457 0.304,10.761 0.552,10.998L4.963,15.292L4.949,15.24C4.955,15.245 4.96,15.253 4.963,15.261C4.965,15.269 4.966,15.278 4.964,15.286L4.963,15.292L3.918,21.409C3.861,21.74 3.897,22.083 4.024,22.395C4.15,22.707 4.362,22.977 4.635,23.175C4.908,23.373 5.231,23.49 5.567,23.513C5.902,23.537 6.238,23.466 6.535,23.308L6.536,23.307L11.935,20.454C11.955,20.445 11.976,20.441 11.997,20.441C12.018,20.441 12.039,20.445 12.058,20.454L17.457,23.307C17.755,23.465 18.091,23.537 18.427,23.513C18.763,23.49 19.086,23.373 19.359,23.175C19.632,22.977 19.844,22.707 19.97,22.395C20.097,22.083 20.133,21.742 20.076,21.411L19.03,15.292L19.029,15.286C19.028,15.278 19.029,15.269 19.031,15.261C19.034,15.253 19.039,15.245 19.045,15.24L19.055,15.23L23.441,10.998C23.69,10.761 23.865,10.457 23.945,10.123C24.025,9.788 24.007,9.436 23.891,9.111C23.776,8.786 23.569,8.502 23.295,8.292C23.031,8.09 22.715,7.965 22.384,7.933L16.391,7.045C16.381,7.044 16.37,7.042 16.36,7.041L16.352,7.038L16.346,7.031C16.341,7.02 16.336,7.009 16.331,6.998L13.609,1.504C13.466,1.2 13.24,0.944 12.957,0.763C12.67,0.58 12.337,0.482 11.997,0.482Z" clip-rule="evenodd" fill-rule="evenodd" fill="#FFC700"/>
</svg>
