<svg width="60" height="58" viewBox="0 0 60 58" fill="none" xmlns="http://www.w3.org/2000/svg" xmlns:xlink="http://www.w3.org/1999/xlink">
<path d="M29.992,0C29.142,0 28.309,0.243 27.593,0.701C26.885,1.153 26.32,1.796 25.962,2.554L19.158,16.291C19.144,16.318 19.132,16.345 19.119,16.372C19.116,16.379 19.112,16.385 19.106,16.39C19.1,16.394 19.092,16.397 19.085,16.398C19.059,16.4 19.033,16.404 19.007,16.408L4.026,18.627C3.198,18.708 2.408,19.018 1.747,19.525C1.063,20.049 0.545,20.76 0.257,21.573C-0.032,22.385 -0.078,23.264 0.123,24.102C0.323,24.937 0.76,25.696 1.381,26.289L12.347,36.87L12.372,36.893C12.388,36.908 12.4,36.926 12.406,36.947C12.413,36.967 12.415,36.989 12.411,37.01L12.409,37.024L9.795,52.317C9.652,53.146 9.743,54.002 10.059,54.781C10.376,55.562 10.905,56.238 11.587,56.732C12.269,57.226 13.077,57.52 13.917,57.578C14.756,57.636 15.594,57.458 16.336,57.065L16.341,57.062L29.839,49.929C29.887,49.908 29.939,49.897 29.992,49.897C30.045,49.897 30.098,49.908 30.146,49.929L43.644,57.062C44.387,57.457 45.228,57.637 46.068,57.578C46.908,57.52 47.715,57.226 48.397,56.732C49.079,56.238 49.609,55.562 49.926,54.781C50.242,54.002 50.333,53.15 50.19,52.321L50.189,52.317L47.576,37.024L47.574,37.01C47.57,36.989 47.571,36.967 47.578,36.947C47.585,36.926 47.597,36.908 47.612,36.893L47.637,36.87L58.604,26.289C59.225,25.696 59.662,24.937 59.862,24.102C60.063,23.264 60.016,22.385 59.728,21.573C59.44,20.76 58.922,20.049 58.238,19.525C57.576,19.018 56.787,18.708 55.959,18.627L40.978,16.408C40.952,16.404 40.926,16.4 40.9,16.398C40.892,16.397 40.885,16.394 40.879,16.39C40.873,16.385 40.868,16.379 40.865,16.372C40.853,16.345 40.84,16.318 40.827,16.291L34.023,2.554C33.665,1.796 33.099,1.153 32.392,0.701C31.675,0.243 30.843,0 29.992,0Z" clip-rule="evenodd" fill-rule="evenodd" fill="#FFC700"/>
</svg>
