<svg width="14" height="22" viewBox="0 0 14 22" fill="none" xmlns="http://www.w3.org/2000/svg" xmlns:xlink="http://www.w3.org/1999/xlink">
<path d="M0.586,17.586C-0.195,18.367 -0.195,19.633 0.586,20.414C1.367,21.195 2.633,21.195 3.414,20.414L0.586,17.586ZM11,10L12.414,11.414C13.195,10.633 13.195,9.367 12.414,8.586L11,10ZM3.414,-0.414C2.633,-1.195 1.367,-1.195 0.586,-0.414C-0.195,0.367 -0.195,1.633 0.586,2.414L3.414,-0.414ZM3.414,20.414L12.414,11.414L9.586,8.586L0.586,17.586L3.414,20.414ZM12.414,8.586L3.414,-0.414L0.586,2.414L9.586,11.414L12.414,8.586Z" fill="#FF8F31"/>
</svg>
