<svg width="32" height="22" viewBox="0 0 32 22" fill="none" xmlns="http://www.w3.org/2000/svg" xmlns:xlink="http://www.w3.org/1999/xlink">
<path d="M15.334,4.569C19.784,4.569 24.063,6.277 27.288,9.341C27.53,9.577 27.919,9.574 28.158,9.334L30.479,6.993C30.6,6.871 30.668,6.706 30.667,6.535C30.666,6.363 30.596,6.199 30.474,6.078C22.01,-2.026 8.657,-2.026 0.193,6.078C0.071,6.199 0.001,6.363 0,6.535C-0.001,6.706 0.066,6.871 0.187,6.993L2.509,9.334C2.748,9.574 3.137,9.577 3.379,9.341C6.604,6.277 10.884,4.569 15.334,4.569ZM15.334,12.184C17.779,12.184 20.136,13.092 21.948,14.731C22.194,14.964 22.58,14.959 22.819,14.72L25.137,12.379C25.259,12.257 25.327,12.09 25.325,11.917C25.323,11.744 25.252,11.579 25.128,11.459C19.609,6.33 11.064,6.33 5.545,11.459C5.421,11.579 5.349,11.744 5.348,11.917C5.346,12.09 5.414,12.257 5.537,12.379L7.854,14.72C8.093,14.959 8.479,14.964 8.725,14.731C10.535,13.093 12.891,12.185 15.334,12.184ZM19.979,17.308C19.982,17.481 19.914,17.649 19.79,17.77L15.779,21.814C15.662,21.933 15.501,22 15.334,22C15.167,22 15.007,21.933 14.889,21.814L10.878,17.77C10.754,17.649 10.686,17.481 10.689,17.308C10.693,17.134 10.768,16.97 10.897,16.853C13.458,14.689 17.21,14.689 19.771,16.853C19.9,16.97 19.975,17.134 19.979,17.308Z" clip-rule="evenodd" fill-rule="evenodd" fill="#080E1C"/>
</svg>
